<?xml version="1.0" encoding="UTF-8" standalone="no"?>
<!-- Created with Inkscape (http://www.inkscape.org/) -->

<svg
   width="16"
   height="16"
   viewBox="0 0 16 16"
   version="1.1"
   id="svg1"
   xmlns:xlink="http://www.w3.org/1999/xlink"
   xmlns="http://www.w3.org/2000/svg"
   xmlns:svg="http://www.w3.org/2000/svg">
  <defs
     id="defs1">
    <linearGradient
       id="linearGradient2">
      <stop
         style="stop-color:#00ff00;stop-opacity:0.50000048;"
         offset="0"
         id="stop1" />
      <stop
         style="stop-color:#008000;stop-opacity:0.50000048;"
         offset="1"
         id="stop2" />
    </linearGradient>
    <linearGradient
       id="linearGradient5">
      <stop
         style="stop-color:#ffffff;stop-opacity:1;"
         offset="0"
         id="stop5" />
      <stop
         style="stop-color:#939393;stop-opacity:1;"
         offset="1"
         id="stop6" />
    </linearGradient>
    <linearGradient
       xlink:href="#linearGradient5"
       id="linearGradient8"
       gradientUnits="userSpaceOnUse"
       x1="0.75511509"
       y1="8.8181257"
       x2="13.249269"
       y2="8.8181257" />
    <linearGradient
       xlink:href="#linearGradient2"
       id="linearGradient8-4"
       gradientUnits="userSpaceOnUse"
       x1="0.75511509"
       y1="8.8181257"
       x2="13.249269"
       y2="8.8181257"
       gradientTransform="translate(-2,-1.9999456)" />
  </defs>
  <g
     id="layer1"
     style="display:inline">
    <path
       style="fill:none;fill-opacity:1;stroke:#000000;stroke-width:0.75;stroke-linecap:butt;stroke-linejoin:miter;stroke-dasharray:none;stroke-opacity:1"
       id="ellipse1"
       d="m 13.624999,11 a 6.6249995,2.6232524 0 0 1 -3.3125,2.271803 6.6249995,2.6232524 0 0 1 -6.6249994,0 A 6.6249995,2.6232524 0 0 1 0.375,11" />
    <ellipse
       style="fill:#ffffff;fill-opacity:1;stroke:#000000;stroke-width:0.75;stroke-linecap:butt;stroke-linejoin:miter;stroke-dasharray:none;stroke-opacity:1"
       id="path1"
       cx="7"
       cy="3"
       rx="6.6249456"
       ry="2.6249456" />
    <path
       style="fill:none;stroke:#000000;stroke-width:0.75;stroke-linecap:butt;stroke-dasharray:none"
       d="M 0.375,11 V 3"
       id="path2" />
    <path
       style="fill:none;stroke:#000000;stroke-width:0.75;stroke-linecap:butt;stroke-dasharray:none"
       d="M 13.625,11 V 3"
       id="path2-8" />
    <path
       style="fill:url(#linearGradient8);fill-opacity:1;stroke:#000000;stroke-width:0;stroke-dasharray:none"
       d="M 6.2605904,13.226382 C 4.945791,13.153144 3.8738278,12.972294 2.91749,12.662369 2.1244118,12.405352 1.5264906,12.087611 1.1418182,11.71876 0.94296021,11.528081 0.83026913,11.355325 0.78223667,11.16752 0.75559379,11.063348 0.75511507,11.00275 0.75511507,7.7343567 V 4.4072376 l 0.0858085,0.069384 C 1.2895577,4.8393845 2.015284,5.1906321 2.8282492,5.4384766 3.756276,5.7213994 4.6854908,5.8811572 5.9516797,5.9754809 6.327405,6.0034703 7.7654248,5.998486 8.1621074,5.9678195 9.4548661,5.8678795 10.494113,5.6720972 11.449567,5.3484994 11.783791,5.2353029 12.028789,5.1341987 12.335834,4.9827597 12.644658,4.8304439 12.850908,4.7060988 13.087733,4.5294515 l 0.161536,-0.1204894 -0.0036,3.3524794 c -0.0035,3.2278545 -0.0046,3.3552865 -0.02921,3.4279905 -0.134282,0.396746 -0.531245,0.760478 -1.189491,1.089915 -0.969343,0.485134 -2.2765733,0.796053 -3.8785459,0.922496 -0.210304,0.0166 -0.4926356,0.02367 -1.0434318,0.02613 -0.4153132,0.0019 -0.7952734,0.0011 -0.8443559,-0.0016 z"
       id="path3" />
  </g>
  <g
     id="layer1-4"
     style="display:inline"
     transform="translate(2,1.9999456)">
    <path
       style="display:inline;fill:url(#linearGradient8-4);fill-opacity:1;stroke:#000000;stroke-width:0;stroke-dasharray:none"
       d="M 6.2605904,13.226382 C 4.945791,13.153144 3.8738278,12.972294 2.91749,12.662369 2.1244118,12.405352 1.5264906,12.087611 1.1418182,11.71876 0.94296021,11.528081 0.83026913,11.355325 0.78223667,11.16752 0.75559379,11.063348 0.75511507,11.00275 0.75511507,7.7343567 V 4.4072376 l 0.0858085,0.069384 C 1.2895577,4.8393845 2.015284,5.1906321 2.8282492,5.4384766 3.756276,5.7213994 4.6854908,5.8811572 5.9516797,5.9754809 6.327405,6.0034703 7.7654248,5.998486 8.1621074,5.9678195 9.4548661,5.8678795 10.494113,5.6720972 11.449567,5.3484994 11.783791,5.2353029 12.028789,5.1341987 12.335834,4.9827597 12.644658,4.8304439 12.850908,4.7060988 13.087733,4.5294515 l 0.161536,-0.1204894 -0.0036,3.3524794 c -0.0035,3.2278545 -0.0046,3.3552865 -0.02921,3.4279905 -0.134282,0.396746 -0.531245,0.760478 -1.189491,1.089915 -0.969343,0.485134 -2.2765733,0.796053 -3.8785459,0.922496 -0.210304,0.0166 -0.4926356,0.02367 -1.0434318,0.02613 -0.4153132,0.0019 -0.7952734,0.0011 -0.8443559,-0.0016 z"
       id="path3-1" />
    <path
       style="display:inline;fill:none;stroke:#00a000;stroke-width:0.5;stroke-linecap:round;stroke-dasharray:0.5, 0.75;stroke-dashoffset:0;stroke-opacity:1"
       d="M 7.375,13.625054 V 5.6250544 M 3.25,13.250054 V 5.2500544 m 7.5,7.9999996 V 5.2500544"
       id="path4" />
    <path
       style="fill:none;fill-opacity:1;stroke:#00c000;stroke-width:0.75;stroke-linecap:butt;stroke-linejoin:miter;stroke-dasharray:none;stroke-opacity:1"
       id="ellipse1-5"
       d="m 13.624999,11 a 6.6249995,2.6232524 0 0 1 -3.3125,2.271803 6.6249995,2.6232524 0 0 1 -6.6249994,0 A 6.6249995,2.6232524 0 0 1 0.375,11" />
    <path
       style="fill:none;fill-opacity:1;stroke:#00c000;stroke-width:0.75;stroke-linecap:round;stroke-linejoin:miter;stroke-dasharray:none;stroke-opacity:1"
       id="path1-5"
       d="m 13.625,3 a 6.625,2.6249456 0 0 1 -3.3125,2.2732696 6.625,2.6249456 0 0 1 -6.6250002,0 A 6.625,2.6249456 0 0 1 0.375,3" />
    <path
       style="display:inline;fill:none;fill-opacity:1;stroke:#00c000;stroke-width:0.5;stroke-linecap:round;stroke-linejoin:miter;stroke-dasharray:0.5, 0.75;stroke-dashoffset:0;stroke-opacity:1"
       id="path1-5-6"
       d="M 13.625,5.3750544 A 6.625,2.6249456 0 0 1 10.3125,7.648324 6.625,2.6249456 0 0 1 3.6874998,7.6483239 6.625,2.6249456 0 0 1 0.375,5.3750544" />
    <path
       style="display:inline;fill:none;fill-opacity:1;stroke:#00c000;stroke-width:0.5;stroke-linecap:round;stroke-linejoin:miter;stroke-dasharray:0.5, 0.75;stroke-dashoffset:0;stroke-opacity:1"
       id="path1-5-2"
       d="m 13.625,8.3750544 a 6.625,2.6249456 0 0 1 -3.3125,2.2732696 6.625,2.6249456 0 0 1 -6.6250002,0 A 6.625,2.6249456 0 0 1 0.375,8.3750544" />
    <path
       style="fill:none;stroke:#00c000;stroke-width:0.75;stroke-linecap:butt;stroke-dasharray:none;stroke-opacity:1"
       d="M 0.375,11 V 3"
       id="path2-1" />
    <path
       style="fill:none;stroke:#00c000;stroke-width:0.75;stroke-linecap:butt;stroke-dasharray:none;stroke-opacity:1"
       d="M 13.625,11 V 3"
       id="path2-8-7" />
  </g>
</svg>
