<?xml version="1.0" encoding="UTF-8" standalone="no"?>
<!-- Created with Inkscape (http://www.inkscape.org/) -->

<svg
   width="16"
   height="16"
   viewBox="0 0 16 16"
   version="1.1"
   id="svg1"
   xmlns:xlink="http://www.w3.org/1999/xlink"
   xmlns="http://www.w3.org/2000/svg"
   xmlns:svg="http://www.w3.org/2000/svg">
  <defs
     id="defs1">
    <linearGradient
       id="linearGradient9">
      <stop
         style="stop-color:#00d400;stop-opacity:1;"
         offset="0"
         id="stop9" />
      <stop
         style="stop-color:#00a000;stop-opacity:1;"
         offset="0.34734917"
         id="stop11" />
      <stop
         style="stop-color:#00a000;stop-opacity:0;"
         offset="1"
         id="stop10" />
    </linearGradient>
    <linearGradient
       xlink:href="#linearGradient9"
       id="linearGradient10"
       x1="0.7518549"
       y1="6.1996379"
       x2="14.615004"
       y2="6.1996379"
       gradientUnits="userSpaceOnUse" />
  </defs>
  <g
     id="layer1"
     style="display:inline">
    <rect
       style="display:inline;fill:#ff00ff;fill-opacity:1;stroke:#000000;stroke-width:0;stroke-dasharray:none"
       id="rect1-50"
       width="1.999999"
       height="2"
       x="7"
       y="5.625"
       transform="translate(0,-2.625)" />
    <rect
       style="display:inline;fill:#ff00ff;fill-opacity:1;stroke:#000000;stroke-width:0;stroke-dasharray:none"
       id="rect1-50-7"
       width="1.999999"
       height="2"
       x="7"
       y="9.625"
       transform="translate(0,-2.625)" />
    <rect
       style="display:inline;fill:#000000;fill-opacity:1;stroke:#000000;stroke-width:0;stroke-dasharray:none"
       id="rect1-13"
       width="1.999999"
       height="2"
       x="7"
       y="7.625"
       transform="translate(0,-2.625)" />
    <rect
       style="display:inline;fill:#000000;fill-opacity:1;stroke:#000000;stroke-width:0;stroke-dasharray:none"
       id="rect1-13-7"
       width="1.999999"
       height="2"
       x="7"
       y="11.625"
       transform="translate(0,-2.625)" />
    <rect
       style="display:inline;fill:#ff00ff;fill-opacity:1;stroke:#000000;stroke-width:0;stroke-dasharray:none"
       id="rect1-50-3"
       width="1.999999"
       height="2"
       x="9"
       y="7.625"
       transform="translate(0,-2.625)" />
    <rect
       style="display:inline;fill:#ff00ff;fill-opacity:1;stroke:#000000;stroke-width:0;stroke-dasharray:none"
       id="rect1-50-7-2"
       width="1.999999"
       height="2"
       x="9"
       y="11.625"
       transform="translate(0,-2.625)" />
    <rect
       style="display:inline;fill:#000000;fill-opacity:1;stroke:#000000;stroke-width:0;stroke-dasharray:none"
       id="rect1-13-2"
       width="1.999999"
       height="2"
       x="9"
       y="9.625"
       transform="translate(0,-2.625)" />
    <rect
       style="display:inline;fill:#000000;fill-opacity:1;stroke:#000000;stroke-width:0;stroke-dasharray:none"
       id="rect1-13-7-1"
       width="1.999999"
       height="2"
       x="9"
       y="5.625"
       transform="translate(0,-2.625)" />
    <rect
       style="display:inline;fill:#ff00ff;fill-opacity:1;stroke:#000000;stroke-width:0;stroke-dasharray:none"
       id="rect1-50-3-7"
       width="1.999999"
       height="2"
       x="5"
       y="5" />
    <rect
       style="display:inline;fill:#ff00ff;fill-opacity:1;stroke:#000000;stroke-width:0;stroke-dasharray:none"
       id="rect1-50-7-2-7"
       width="1.999999"
       height="2"
       x="5"
       y="9" />
    <rect
       style="display:inline;fill:#000000;fill-opacity:1;stroke:#000000;stroke-width:0;stroke-dasharray:none"
       id="rect1-13-2-9"
       width="1.999999"
       height="2"
       x="5"
       y="7" />
    <rect
       style="display:inline;fill:#000000;fill-opacity:1;stroke:#000000;stroke-width:0;stroke-dasharray:none"
       id="rect1-13-7-1-3"
       width="1.999999"
       height="2"
       x="5"
       y="3" />
    <rect
       style="display:inline;fill:#ff00ff;fill-opacity:1;stroke:#000000;stroke-width:0;stroke-dasharray:none"
       id="rect1-50-6"
       width="1.999999"
       height="2"
       x="11"
       y="5.625"
       transform="translate(0,-2.625)" />
    <rect
       style="display:inline;fill:#ff00ff;fill-opacity:1;stroke:#000000;stroke-width:0;stroke-dasharray:none"
       id="rect1-50-7-1"
       width="1.999999"
       height="2"
       x="11"
       y="9.625"
       transform="translate(0,-2.625)" />
    <rect
       style="display:inline;fill:#000000;fill-opacity:1;stroke:#000000;stroke-width:0;stroke-dasharray:none"
       id="rect1-13-8"
       width="1.999999"
       height="2"
       x="11"
       y="7.625"
       transform="translate(0,-2.625)" />
    <rect
       style="display:inline;fill:#000000;fill-opacity:1;stroke:#000000;stroke-width:0;stroke-dasharray:none"
       id="rect1-13-7-9"
       width="1.999999"
       height="2"
       x="11"
       y="11.625"
       transform="translate(0,-2.625)" />
    <rect
       style="display:inline;fill:#ff00ff;fill-opacity:1;stroke:#000000;stroke-width:0;stroke-dasharray:none"
       id="rect1-50-4"
       width="1.999999"
       height="2"
       x="13"
       y="7.625"
       transform="translate(0,-2.625)" />
    <rect
       style="display:inline;fill:#ff00ff;fill-opacity:1;stroke:#000000;stroke-width:0;stroke-dasharray:none"
       id="rect1-50-7-3"
       width="2"
       height="2"
       x="13"
       y="11.625"
       transform="translate(0,-2.625)" />
    <rect
       style="display:inline;fill:#000000;fill-opacity:1;stroke:#000000;stroke-width:0;stroke-dasharray:none"
       id="rect1-13-1"
       width="1.999999"
       height="2"
       x="13"
       y="9.625"
       transform="translate(0,-2.625)" />
    <rect
       style="display:inline;fill:#000000;fill-opacity:1;stroke:#000000;stroke-width:0;stroke-dasharray:none"
       id="rect1-13-7-2"
       width="1.999999"
       height="2"
       x="13"
       y="5.625"
       transform="translate(0,-2.625)" />
  </g>
  <g
     id="layer1-4"
     style="display:inline"
     transform="translate(0,-2.625)"
     mask="none">
    <path
       style="display:inline;fill:url(#linearGradient10);stroke:none;stroke-width:1"
       d="M 6.3050289,10.603832 C 5.0394191,10.549556 3.8284755,10.344408 2.8557296,10.01948 2.5204411,9.9074832 2.3347981,9.8328084 2.0511129,9.6958232 1.6326895,9.4937761 1.3494837,9.3043428 1.1139599,9.0689715 0.91173653,8.8668791 0.79708206,8.6732499 0.76592499,8.4812081 0.75649036,8.4230562 0.75202232,7.3379495 0.75195455,5.0883459 L 0.75185491,1.7809786 0.89221433,1.8876459 C 1.1292344,2.0677713 1.3328824,2.1914798 1.6597388,2.3538883 c 0.9431399,0.4686276 2.2232098,0.7971161 3.6757929,0.9432732 0.7455506,0.075016 0.4735123,0.070935 5.0552353,0.075843 l 4.224237,0.00452 v 3.6203862 3.6203863 l -4.032976,-0.002 c -2.2181368,-0.0011 -4.1427865,-0.0067 -4.2769991,-0.01247 z"
       id="path8"
       transform="translate(0,2.625)" />
    <path
       style="display:inline;fill:none;stroke:#00a000;stroke-width:0.5;stroke-linecap:round;stroke-dasharray:0.5, 0.75;stroke-dashoffset:0;stroke-opacity:1"
       d="M 7.375,13.625054 V 5.6250544 M 3.25,13.250054 V 5.2500544 M 11,13.625 v -8"
       id="path4" />
    <path
       style="display:inline;fill:none;fill-opacity:1;stroke:#00c000;stroke-width:0.5;stroke-linecap:round;stroke-linejoin:miter;stroke-dasharray:0.5, 0.75;stroke-dashoffset:0;stroke-opacity:1"
       id="path1-5-6"
       d="M 7,8 A 6.625,2.6249456 0 0 1 2.3154175,7.2311712 6.625,2.6249456 0 0 1 0.375,5.3750544" />
    <path
       style="display:inline;fill:none;fill-opacity:1;stroke:#00c000;stroke-width:0.5;stroke-linecap:round;stroke-linejoin:miter;stroke-dasharray:0.5, 0.75;stroke-dashoffset:0;stroke-opacity:1"
       id="path1-5-2"
       d="M 7,11 A 6.625,2.6249456 0 0 1 2.3154175,10.231171 6.625,2.6249456 0 0 1 0.375,8.3750544" />
    <path
       style="display:inline;fill:none;fill-opacity:0;stroke:#00c000;stroke-width:0.5;stroke-linecap:round;stroke-dasharray:0.5, 0.75;stroke-dashoffset:0.5;stroke-opacity:1"
       d="m 7,8 h 8"
       id="path6" />
    <path
       style="display:inline;fill:none;fill-opacity:0;stroke:#00c000;stroke-width:0.5;stroke-linecap:round;stroke-dasharray:0.5, 0.75;stroke-dashoffset:0.5;stroke-opacity:1"
       d="m 7,11 h 8"
       id="path7" />
    <path
       style="display:inline;fill:none;fill-opacity:1;stroke:#00c000;stroke-width:0.75;stroke-linecap:round;stroke-linejoin:miter;stroke-dasharray:none;stroke-opacity:1"
       id="path1-5"
       d="M 7,5.6249456 A 6.625,2.6249456 0 0 1 2.3154175,4.8561168 6.625,2.6249456 0 0 1 0.375,3" />
    <path
       style="display:inline;fill:none;fill-opacity:1;stroke:#00c000;stroke-width:0.75;stroke-linecap:round;stroke-linejoin:miter;stroke-dasharray:none;stroke-opacity:1"
       id="path1-5-1"
       d="M 7,13.624946 A 6.625,2.6249456 0 0 1 2.3154175,12.856117 6.625,2.6249456 0 0 1 0.375,11" />
    <path
       style="display:inline;fill:none;stroke:#00c000;stroke-width:0.75;stroke-linecap:butt;stroke-dasharray:none;stroke-opacity:1"
       d="M 0.375,11 V 3"
       id="path2-1" />
    <path
       style="display:inline;fill:none;stroke:#00c000;stroke-width:0.75;stroke-linecap:round;stroke-dasharray:none;stroke-opacity:1"
       d="m 15,13.625 v -8"
       id="path2-8-7" />
    <path
       style="display:inline;fill:none;fill-opacity:0;stroke:#00c000;stroke-width:0.75;stroke-linecap:round;stroke-opacity:1"
       d="m 7,5.625 h 8"
       id="path1" />
    <path
       style="display:inline;fill:none;fill-opacity:0;stroke:#00c000;stroke-width:0.75;stroke-linecap:round;stroke-opacity:1"
       d="m 7,13.625 h 8"
       id="path5" />
  </g>
  <text
     xml:space="preserve"
     style="line-height:1.25;text-align:start;writing-mode:lr-tb;direction:ltr;text-anchor:start;fill:#804080;fill-opacity:1;stroke:#400040;stroke-width:0.7;stroke-linecap:round;stroke-dasharray:none;stroke-dashoffset:0.5;stroke-opacity:1;paint-order:markers stroke fill"
     x="0.60880983"
     y="14.926322"
     id="text1"><tspan
       id="tspan1"
       x="0.60880983"
       y="14.926322"
       style="font-style:normal;font-variant:normal;font-weight:normal;font-stretch:normal;font-size:5.33333px;font-family:'Fira Code';-inkscape-font-specification:'Fira Code, Normal';font-variant-ligatures:normal;font-variant-caps:normal;font-variant-numeric:normal;font-variant-east-asian:normal;fill:#804080;fill-opacity:1;stroke:#400040;stroke-width:0.7;stroke-dasharray:none;stroke-opacity:1;paint-order:markers stroke fill">LSCM</tspan></text>
</svg>
